<svg width="96" height="24" viewBox="0 0 96 24" fill="none" xmlns="http://www.w3.org/2000/svg">
<path d="M5.04069 1.70898C5.04068 1.70899 5.04067 1.709 5.04067 1.70901C4.85306 1.89639 4.85316 2.20062 5.04067 2.38813C5.22822 2.57568 5.53223 2.57568 5.71978 2.38813L5.7198 2.3881C6.05998 2.04772 6.51217 1.8605 6.99328 1.8605C7.98642 1.8605 8.79456 2.66865 8.79456 3.66179C8.79456 4.65494 7.98647 5.46313 6.99328 5.46313C6.72791 5.46313 6.513 5.67827 6.513 5.94341V7.94474C6.513 8.20982 6.7279 8.42502 6.99328 8.42502C7.25867 8.42502 7.47356 8.20985 7.47356 7.94457V6.38179C8.7682 6.15388 9.75512 5.02123 9.75512 3.66185C9.75512 2.1388 8.51615 0.9 6.99328 0.9C6.25605 0.9 5.56232 1.18737 5.04069 1.70898Z" fill="#828282" stroke="#828282" stroke-width="0.2"/>
<path d="M8.02976 21.1037V21.1145C8.02391 21.6806 7.56138 22.1397 6.99377 22.1397C6.42252 22.1397 5.95772 21.6748 5.95772 21.1037V10.5259H8.02976V21.1037ZM8.50987 9.56522H5.47749C5.21213 9.56522 4.99721 9.78036 4.99721 10.0455V21.1035C4.99721 22.2044 5.89284 23.1 6.99377 23.1C8.0947 23.1 8.99015 22.2046 8.99015 21.1035V10.0455C8.99015 9.78036 8.77524 9.56522 8.50987 9.56522Z" fill="#828282" stroke="#828282" stroke-width="0.2"/>
<path d="M8.49852 7.66398H5.45645C5.19109 7.66398 4.97617 7.87911 4.97617 8.14426V10.0455C4.97617 10.3106 5.19108 10.5258 5.45645 10.5258H8.49852C8.76389 10.5258 8.9788 10.3107 8.9788 10.0455V8.14426C8.9788 7.87911 8.76389 7.66398 8.49852 7.66398Z" fill="#828282" stroke="#828282" stroke-width="0.2"/>
<path d="M16.7 5.39353C16.439 5.39353 16.2275 5.60518 16.2275 5.86603V8.47338C16.2275 8.73416 16.439 8.94588 16.7 8.94588C16.9611 8.94588 17.1725 8.73423 17.1725 8.47338V5.86603C17.1725 5.60525 16.9611 5.39353 16.7 5.39353Z" fill="#828282" stroke="#828282" stroke-width="0.2"/>
<path d="M18.8317 1.7968L18.8318 1.79684C20.0275 2.99298 20.0275 4.93877 18.8318 6.13476L18.8317 1.7968ZM18.8317 1.7968C17.6352 0.601078 15.6896 0.601047 14.4938 1.79682L14.4938 1.79683M18.8317 1.7968L14.4938 1.79683M14.4938 1.79683C13.9145 2.37614 13.5952 3.14673 13.5952 3.96588M14.4938 1.79683L13.5952 3.96588M13.5952 3.96588C13.5952 4.78526 13.9145 5.55579 14.4938 6.13495M13.5952 3.96588L14.4938 6.13495M14.4938 6.13495C15.0731 6.71427 15.8435 7.03341 16.6627 7.03341M14.4938 6.13495L16.6627 7.03341M16.6627 7.03341C17.4819 7.03341 18.2526 6.71428 18.8318 6.13477L16.6627 7.03341Z" fill="#828282" stroke="#828282" stroke-width="0.2"/>
<path d="M18.6624 8.47302V8.47299C18.6623 8.21218 18.4509 8.00052 18.1899 8.00052H15.2101C14.949 8.00052 14.7376 8.21218 14.7376 8.47302V10.3354C14.7376 10.5962 14.949 10.8079 15.2101 10.8079H18.1899C18.451 10.8079 18.6624 10.5962 18.6624 10.3354V8.47302Z" fill="#828282" stroke="#828282" stroke-width="0.2"/>
<path d="M17.708 21.1423V21.1529C17.7023 21.7063 17.2502 22.1551 16.6953 22.1551C16.1369 22.1551 15.6825 21.7005 15.6825 21.1423V10.8082H17.708V21.1423ZM18.1802 9.86326H15.2099C14.9488 9.86326 14.7374 10.0749 14.7374 10.3358V21.1423C14.7374 22.2218 15.6156 23.1 16.6951 23.1C17.7746 23.1 18.6528 22.2218 18.6527 21.1423C18.6527 21.1423 18.6527 21.1423 18.6527 21.1422V10.3358C18.6527 10.075 18.4413 9.86326 18.1802 9.86326Z" fill="#828282" stroke="#828282" stroke-width="0.2"/>
<path d="M59.5293 3.58325C58.711 4.36638 57.7377 4.96923 56.672 5.35291C55.5483 5.5512 52.4387 4.10904 50.9064 5.58125C50.651 5.83663 50.3355 6.09202 50.005 6.3474C49.2839 6.03193 48.1723 5.5512 47.361 5.08551C46.5498 4.61981 44.5068 3.58325 44.5068 3.58325L40 8.84114C40 8.84114 41.1117 10.3434 41.8027 11.3349C42.2534 11.9959 42.8092 13.0024 43.1698 13.6784L42.659 14.2793C42.5367 14.5223 42.4927 14.7972 42.533 15.0662C42.5734 15.3352 42.6961 15.5851 42.8843 15.7815C43.1016 15.9444 43.3659 16.0322 43.6375 16.0317C43.909 16.0311 44.173 15.9423 44.3896 15.7785C44.3093 15.8726 44.2485 15.9817 44.2108 16.0995C44.1731 16.2172 44.1592 16.3413 44.17 16.4645C44.1807 16.5877 44.2159 16.7076 44.2735 16.817C44.3311 16.9265 44.4098 17.0234 44.5053 17.102C44.7347 17.236 44.9956 17.3064 45.2613 17.3058C45.527 17.3053 45.7877 17.2339 46.0165 17.099C45.8449 17.313 45.751 17.5788 45.7501 17.8531C45.7493 18.1274 45.8417 18.3938 46.012 18.6088C46.2335 18.6855 46.4696 18.7099 46.7021 18.6802C46.9345 18.6505 47.157 18.5674 47.352 18.4375C47.2549 18.6675 47.2297 18.9216 47.2798 19.1662C47.33 19.4108 47.4531 19.6344 47.6329 19.8076C47.887 19.9205 48.1655 19.967 48.4425 19.9428C48.7194 19.9187 48.9857 19.8246 49.2163 19.6694L49.9915 18.9678C50.7006 19.6739 51.6785 20.111 52.7586 20.111L52.8503 20.1095C53.2062 20.0792 53.5472 19.9525 53.8367 19.7432C54.1262 19.5339 54.3533 19.2498 54.4937 18.9213C54.7131 19.0054 54.9624 19.0625 55.2268 19.0625C55.5814 19.0625 55.9104 18.9603 56.1883 18.7846C57.0671 18.2032 56.8568 17.7525 56.8568 17.7525C57.1693 17.887 57.5164 17.9189 57.8482 17.8436C58.1799 17.7683 58.4793 17.5896 58.7031 17.3334C58.9356 17.0955 59.0822 16.7869 59.1198 16.4563C59.1573 16.1258 59.0836 15.7921 58.9104 15.5081C58.9199 15.5138 58.9309 15.5164 58.9419 15.5157C59.5744 15.5157 60.1242 15.1671 60.4111 14.6534C60.5523 14.2882 60.6 13.8935 60.5499 13.5053C60.4998 13.117 60.3535 12.7474 60.1242 12.43L60.1287 12.4375C61.3605 12.1972 61.3155 11.5812 61.9164 10.6799C62.4853 9.94434 63.1933 9.32775 64 8.86517L59.5293 3.58325ZM59.4542 14.1892C58.7932 14.8502 58.2824 14.5647 57.1557 13.7084C56.029 12.8522 53.7907 11.2447 53.7907 11.2447C53.8823 11.7029 54.0941 12.101 54.3931 12.418C54.8723 12.9573 56.2994 14.1892 56.9755 14.8201C57.3961 15.2107 58.4777 15.9919 57.8468 16.5928C57.2158 17.1937 56.7201 16.5928 55.6835 15.7515C54.647 14.9102 52.3335 12.8371 52.3335 12.8371C52.3208 13.0359 52.3503 13.235 52.4202 13.4215C52.4902 13.6079 52.5988 13.7774 52.7391 13.9188C52.9945 14.2192 54.4216 15.6013 55.0225 16.2322C55.6234 16.8632 56.1492 17.2387 55.6385 17.7345C55.1277 18.2302 54.0911 17.4491 53.5203 16.8632C52.634 16.0069 50.8763 14.4145 50.8763 14.4145L50.8748 14.4941C50.8748 14.9208 51.022 15.3113 51.2699 15.6208C51.7026 16.1887 52.5438 16.9248 53.0546 17.4956C53.5653 18.0665 53.8658 18.5472 53.0546 18.9979C52.2434 19.4486 51.0416 18.3369 50.5158 17.7961V17.7931C50.5159 17.6447 50.4626 17.5012 50.3655 17.389C50.1859 17.2225 49.9641 17.1082 49.7243 17.0585C49.4845 17.0087 49.2356 17.0253 49.0045 17.1065C49.0996 17.0214 49.1758 16.9173 49.2283 16.801C49.2807 16.6847 49.3083 16.5586 49.3091 16.431C49.31 16.3034 49.2841 16.177 49.2332 16.06C49.1823 15.943 49.1075 15.8379 49.0135 15.7515C48.8163 15.6021 48.5756 15.5214 48.3282 15.5216C48.0808 15.5219 47.8403 15.6032 47.6435 15.753C47.743 15.6579 47.8199 15.5416 47.8683 15.4128C47.9167 15.2839 47.9355 15.1458 47.9232 15.0087C47.911 14.8716 47.868 14.739 47.7974 14.6208C47.7269 14.5026 47.6306 14.4018 47.5158 14.3259C47.2468 14.1569 46.9313 14.0775 46.6144 14.0991C46.2975 14.1207 45.9956 14.2421 45.7521 14.446C45.9149 14.2488 45.9951 13.9963 45.9761 13.7412C45.9571 13.4862 45.8402 13.2484 45.65 13.0775C45.4135 12.8574 45.1122 12.7198 44.7911 12.6851C44.47 12.6505 44.1462 12.7207 43.8683 12.8852L42.8693 11.1982C42.1783 10.1015 41.3671 8.95982 41.3671 8.95982L44.7922 4.79858C44.7922 4.79858 46.009 5.5497 47.0155 6.12056C47.5113 6.40599 48.3676 6.78155 49.0135 7.082C47.992 7.84815 47.1357 8.58425 47.3911 9.09502C47.8462 9.42172 48.3901 9.60192 48.9502 9.61159C49.5104 9.62125 50.0602 9.45991 50.5263 9.1491C51.1239 8.7518 51.8262 8.54108 52.5438 8.54369C53.0651 8.54369 53.5608 8.65185 54.01 8.84865C54.8423 9.41049 56.3746 10.7926 57.7717 11.6639C59.5293 12.9408 59.8748 13.767 59.4542 14.1877V14.1892Z" fill="#828282"/>
<path fill-rule="evenodd" clip-rule="evenodd" d="M93.8494 12.4895C93.8494 15.3365 93.3186 18.9525 91.7026 18.9525C89.0541 18.9525 90.2739 13.4128 87.9915 13.4128C85.7092 13.4128 86.4809 18.9817 84.3002 18.9817C82.7671 18.9817 82.1572 15.2961 82.1572 12.4895C82.1572 10.7888 79.9049 7.99911 81.5736 5.53229C83.6198 2.50735 85.5906 4.89605 87.9407 4.89605C90.3266 4.89605 92.1873 2.55723 94.3671 5.53229C96.0951 7.8937 93.8494 10.8179 93.8494 12.4895Z" fill="#828282"/>
</svg>
