<svg width="20" height="20" viewBox="0 0 20 20" fill="none" xmlns="http://www.w3.org/2000/svg">
<path fill-rule="evenodd" clip-rule="evenodd" d="M5.5 2C5.63261 2 5.75979 2.05268 5.85355 2.14645C5.94732 2.24021 6 2.36739 6 2.5V3C6 3.13261 5.94732 3.25979 5.85355 3.35355C5.75979 3.44732 5.63261 3.5 5.5 3.5C5.36739 3.5 5.24021 3.44732 5.14645 3.35355C5.05268 3.25979 5 3.13261 5 3V2.5C5 2.36739 5.05268 2.24021 5.14645 2.14645C5.24021 2.05268 5.36739 2 5.5 2V2ZM14.5 2C14.6326 2 14.7598 2.05268 14.8536 2.14645C14.9473 2.24021 15 2.36739 15 2.5V3C15 3.13261 14.9473 3.25979 14.8536 3.35355C14.7598 3.44732 14.6326 3.5 14.5 3.5C14.3674 3.5 14.2402 3.44732 14.1464 3.35355C14.0527 3.25979 14 3.13261 14 3V2.5C14 2.36739 14.0527 2.24021 14.1464 2.14645C14.2402 2.05268 14.3674 2 14.5 2V2Z" fill="white"/>
<path d="M4 3C3.46957 3 2.96086 3.21071 2.58579 3.58579C2.21071 3.96086 2 4.46957 2 5L2 6H18V5C18 4.46957 17.7893 3.96086 17.4142 3.58579C17.0391 3.21071 16.5304 3 16 3H4ZM18 7H2V16C2 16.5304 2.21071 17.0391 2.58579 17.4142C2.96086 17.7893 3.46957 18 4 18H16C16.5304 18 17.0391 17.7893 17.4142 17.4142C17.7893 17.0391 18 16.5304 18 16V7Z" fill="white"/>
</svg>
