<svg width="94" height="100" viewBox="0 0 94 100" fill="none" xmlns="http://www.w3.org/2000/svg">
<g filter="url(#filter0_d_1_504)">
<path d="M7.37655 43.3956L4.31128 39.1045C10.8692 34.4203 18.8584 32.5702 26.8081 33.895L25.9412 39.0967C19.3812 38.0034 12.7882 39.5302 7.37655 43.3956Z" fill="#F9A7B0"/>
<path d="M86.6231 43.3956C81.2115 39.5302 74.6185 38.0036 68.0584 39.0967L67.1914 33.895C75.1409 32.5702 83.1304 34.4203 89.6882 39.1045L86.6231 43.3956Z" fill="#F27281"/>
<path d="M75.2292 9.79235C75.1167 6.66309 72.8542 4.03411 69.7853 3.41202C55.9291 0.603562 47.0005 6.35354 47.0005 6.35354L41.3757 26.2518L47.0005 52.501C54.3137 52.501 54.9743 70.6842 54.7778 80.7867C54.7075 84.3983 57.6138 87.3634 61.226 87.3634C63.7999 87.3634 66.1324 85.836 67.1473 83.4707C68.951 79.2671 71.3747 71.9623 71.3747 63.0604C71.3747 49.2273 66.7977 35.4508 66.7977 35.4508C74.6337 28.3788 75.4707 16.5121 75.2292 9.79235Z" fill="#EFE2DD"/>
<path d="M24.2153 3.41202C21.1464 4.03411 18.8839 6.66309 18.7714 9.79235C18.5299 16.5121 19.3669 28.5545 27.2029 35.6266C27.2029 35.6266 22.6259 49.2273 22.6259 63.0604C22.6259 71.9623 25.0496 79.2673 26.8533 83.4707C27.8682 85.8362 30.2007 87.3634 32.7746 87.3634C36.3868 87.3634 39.2931 84.3983 39.223 80.7867C39.0265 70.684 39.6871 52.501 47.0003 52.501V6.35354C47.0003 6.35354 38.0715 0.603562 24.2153 3.41202Z" fill="#F7F0EB"/>
<path d="M41.9774 52.0606C38.1056 56.0083 36.2921 65.6907 36.5869 80.8385C36.6069 81.8717 36.2198 82.847 35.4967 83.5844C34.774 84.3213 33.8072 84.7271 32.7749 84.7271C31.248 84.7271 29.875 83.8261 29.2765 82.4314C27.4454 78.1638 25.2627 71.3391 25.2627 63.0607C25.2627 49.8442 29.6579 36.5991 29.702 36.4678L30.2538 34.8285L28.9697 33.6695C25.9247 30.9214 20.8931 24.1772 21.4066 9.8872C21.4751 7.98015 22.8455 6.38002 24.7392 5.99629C29.993 4.9314 35.0901 5.03828 39.8889 6.31375C43.4877 7.27035 45.5624 8.56392 45.5728 8.57043L46.9757 9.50558L47.0003 9.48976L48.8752 5.6275L47.0003 3.34902C43.7761 1.74378 35.3386 -1.53243 23.6917 0.82814C19.3997 1.69808 16.2929 5.34554 16.1367 9.69789C15.8957 16.3997 16.6709 28.4747 24.2026 36.3825C22.983 40.4454 19.9894 51.5867 19.9894 63.0607C19.9894 72.2347 22.4045 79.7889 24.4304 84.5107C25.8612 87.8457 29.1367 90.0004 32.7749 90.0004C35.2355 90.0004 37.5391 89.0331 39.2616 87.2765C40.9846 85.5196 41.9071 83.1968 41.8591 80.7358C41.4868 61.608 44.7371 56.7777 45.7423 55.7529C46.2736 55.2112 46.6764 55.138 47.0003 55.138L48.8752 52.5013L47.0003 49.8646C45.1232 49.8648 43.3861 50.6242 41.9774 52.0606Z" fill="#F7F0EB"/>
<path d="M77.8641 9.69753C77.7077 5.34501 74.6011 1.69755 70.309 0.827787C58.6617 -1.53296 50.2244 1.74343 47.0004 3.34867H47.0002V9.48958L48.4177 8.57675C48.4383 8.56374 50.5131 7.26999 54.1118 6.31357C58.9107 5.0381 64.008 4.93122 69.2615 5.99593C71.1552 6.37984 72.5258 7.9798 72.5942 9.88703C72.8123 15.9571 72.1199 27.0957 65.031 33.4936L63.7536 34.6476L64.2952 36.2813C64.3395 36.4152 68.7381 49.8377 68.7381 63.0603C68.7381 71.3386 66.5554 78.1635 64.7243 82.4311C64.1259 83.8257 62.7527 84.7268 61.226 84.7268C60.1935 84.7268 59.2267 84.3209 58.5041 83.584C57.7809 82.8466 57.3937 81.8716 57.4137 80.8381C57.7085 65.6902 55.895 56.008 52.0234 52.0603C50.6145 50.6238 48.8776 49.8644 47.0004 49.8644V55.1377C47.3244 55.1377 47.7271 55.2106 48.2585 55.7526C49.2636 56.7774 52.5138 61.6075 52.1415 80.7355C52.0937 83.1964 53.016 85.5194 54.739 87.2761C56.4615 89.0325 58.7653 89.9999 61.2259 90C64.864 90 68.1395 87.8451 69.5702 84.5102C71.5963 79.7884 74.0111 72.2342 74.0111 63.0603C74.0111 51.569 71.0084 40.2991 69.794 36.2113C77.3243 28.3172 78.1028 16.3398 77.8641 9.69753Z" fill="#EFE2DD"/>
<path d="M57.5686 32.5735L60.688 27.3523C62.3089 24.6393 62.3454 21.3787 60.7857 18.6302C59.2262 15.8815 56.4082 14.2406 53.2479 14.2406C50.9328 14.2406 48.7565 15.1422 47.1194 16.7791L47.0002 16.8984L43.2503 30.0018L47.0002 43.6569C50.7769 43.6569 54.3737 45.1581 57.1724 47.8853C58.13 51.5326 58.8746 55.1064 59.2056 57.908L64.4425 57.2896C63.614 50.2733 60.5034 39.1848 57.5686 32.5735Z" fill="#666666"/>
<path d="M46.8808 16.7791C45.2439 15.1422 43.0674 14.2406 40.7525 14.2406C37.5923 14.2406 34.7745 15.8815 33.2148 18.63C31.6551 21.3785 31.6917 24.6393 33.3126 27.3521L36.432 32.5734C33.4973 39.1845 30.3867 50.2731 29.558 57.2893L34.7949 57.9076C35.1257 55.106 35.8704 51.5324 36.828 47.8851C39.6264 45.1579 43.2233 43.6565 47.0001 43.6565V16.8984L46.8808 16.7791Z" fill="#878787"/>
</g>
<defs>
<filter id="filter0_d_1_504" x="-2" y="0" width="98" height="100" filterUnits="userSpaceOnUse" color-interpolation-filters="sRGB">
<feFlood flood-opacity="0" result="BackgroundImageFix"/>
<feColorMatrix in="SourceAlpha" type="matrix" values="0 0 0 0 0 0 0 0 0 0 0 0 0 0 0 0 0 0 127 0" result="hardAlpha"/>
<feOffset dy="6"/>
<feGaussianBlur stdDeviation="2"/>
<feColorMatrix type="matrix" values="0 0 0 0 0 0 0 0 0 0 0 0 0 0 0 0 0 0 0.16 0"/>
<feBlend mode="normal" in2="BackgroundImageFix" result="effect1_dropShadow_1_504"/>
<feBlend mode="normal" in="SourceGraphic" in2="effect1_dropShadow_1_504" result="shape"/>
</filter>
</defs>
</svg>
