<svg width="98" height="100" viewBox="0 0 98 100" fill="none" xmlns="http://www.w3.org/2000/svg">
<g filter="url(#filter0_d_1_486)">
<path d="M93.9999 47.1213V25.0891L92.339 24.4274C78.4892 18.9107 63.9079 16.1133 48.9999 16.1133L47.1249 30.6272L48.9999 52.6498L93.9999 47.1213Z" fill="#F27281"/>
<path d="M4 25.0891V47.2178L49 52.6498V16.1133C34.0918 16.1133 19.5106 18.9107 5.66096 24.4276L4 25.0891Z" fill="#F68B98"/>
<path d="M31.3313 47.7012V47.5632C31.3313 43.4466 27.9941 40.1092 23.8773 40.1092C19.8667 40.1092 16.5972 43.2772 16.4314 47.247L16.4235 47.2182C16.4235 43.7876 13.6425 41.0066 10.2119 41.0066C6.78104 41.0064 4 43.7874 4 47.218V54.7776C4 55.7485 4.78697 56.5354 5.75781 56.5354H16.4233V56.9863C16.4233 57.9572 17.2103 58.7441 18.1812 58.7441H31.3313L33.6311 54.3751C33.6311 54.3751 31.3313 49.6949 31.3313 47.7012Z" fill="#EFE2DD"/>
<path d="M87.7883 41.0063C84.3576 41.0063 81.5766 43.7873 81.5766 47.2179L81.5701 47.3045C81.4337 43.3076 78.1527 40.1089 74.1226 40.1089C70.0058 40.1089 66.6686 43.4461 66.6686 47.5629V47.7009C66.6686 42.8219 62.7133 38.8665 57.8343 38.8665C52.9554 38.8665 48.9999 42.8218 48.9999 47.7009L47.1249 52.4999L48.9999 60.9526H64.9108C65.8816 60.9526 66.6686 60.1656 66.6686 59.1947V58.744H79.8188C80.7896 58.744 81.5766 57.9571 81.5766 56.9862V56.5353H92.2421C93.213 56.5353 93.9999 55.7484 93.9999 54.7775V47.2179C93.9999 43.7873 91.2189 41.0063 87.7883 41.0063Z" fill="#EFE2DD"/>
<path d="M40.1655 38.8667C35.2863 38.8667 31.3311 42.822 31.3311 47.7011V47.5631V58.7442V59.1949C31.3311 60.1658 32.118 60.9527 33.0889 60.9527H48.9997V47.7013C48.9997 42.822 45.0444 38.8667 40.1655 38.8667Z" fill="#CDBFBA"/>
<path d="M33.1833 47.8216C27.1437 47.8216 22.2299 52.7354 22.2299 58.7751V69.4923C22.2299 71.9154 24.2013 73.8868 26.6244 73.8868H39.7421C42.1652 73.8868 44.1366 71.9154 44.1366 69.4923V58.7751C44.1366 52.7354 39.223 47.8216 33.1833 47.8216Z" fill="#F7F0EB"/>
</g>
<defs>
<filter id="filter0_d_1_486" x="0" y="0" width="98" height="100" filterUnits="userSpaceOnUse" color-interpolation-filters="sRGB">
<feFlood flood-opacity="0" result="BackgroundImageFix"/>
<feColorMatrix in="SourceAlpha" type="matrix" values="0 0 0 0 0 0 0 0 0 0 0 0 0 0 0 0 0 0 127 0" result="hardAlpha"/>
<feOffset dy="6"/>
<feGaussianBlur stdDeviation="2"/>
<feColorMatrix type="matrix" values="0 0 0 0 0 0 0 0 0 0 0 0 0 0 0 0 0 0 0.16 0"/>
<feBlend mode="normal" in2="BackgroundImageFix" result="effect1_dropShadow_1_486"/>
<feBlend mode="normal" in="SourceGraphic" in2="effect1_dropShadow_1_486" result="shape"/>
</filter>
</defs>
</svg>
