<svg class="icon" width="70" height="72" viewBox="0 0 70 72" fill="none" xmlns="http://www.w3.org/2000/svg">
<g filter="url(#filter0_i_1_125)">
<path d="M17.0257 51.4286L31.3572 59.2457V68.5714H7.35716C3.55144 68.5714 0.500015 65.52 0.500015 61.7143V6.85714C0.500015 5.03852 1.22246 3.29437 2.50843 2.00841C3.79439 0.722447 5.53853 0 7.35716 0H10.7857V24L19.3572 18.8571L27.9286 24V0H48.5C50.3186 0 52.0628 0.722447 53.3488 2.00841C54.6347 3.29437 55.3572 5.03852 55.3572 6.85714V36.1371L50.2143 33.3257L17.0257 51.4286ZM69.0714 51.4286L50.2143 41.1429L31.3572 51.4286L50.2143 61.7143L69.0714 51.4286ZM38.2143 58.5943V65.4514L50.2143 72L62.2143 65.4514V58.5943L50.2143 65.1429L38.2143 58.5943Z" fill="#000"/>
</g>
<defs>
<filter id="filter0_i_1_125" x="0.500015" y="0" width="68.5714" height="76" filterUnits="userSpaceOnUse" color-interpolation-filters="sRGB">
<feFlood flood-opacity="0" result="BackgroundImageFix"/>
<feBlend mode="normal" in="SourceGraphic" in2="BackgroundImageFix" result="shape"/>
<feColorMatrix in="SourceAlpha" type="matrix" values="0 0 0 0 0 0 0 0 0 0 0 0 0 0 0 0 0 0 127 0" result="hardAlpha"/>
<feOffset dy="4"/>
<feGaussianBlur stdDeviation="2"/>
<feComposite in2="hardAlpha" operator="arithmetic" k2="-1" k3="1"/>
<feColorMatrix type="matrix" values="0 0 0 0 0 0 0 0 0 0 0 0 0 0 0 0 0 0 0.12 0"/>
<feBlend mode="normal" in2="shape" result="effect1_innerShadow_1_125"/>
</filter>
</defs>
</svg>
