<svg width="72" height="72" viewBox="0 0 72 72" fill="none" xmlns="http://www.w3.org/2000/svg">
<g filter="url(#filter0_i_1_164)">
<path d="M47.2 19.55C47.2 22.4143 46.0621 25.1614 44.0367 27.1868C42.0113 29.2121 39.2643 30.35 36.4 30.35C33.5356 30.35 30.7886 29.2121 28.7632 27.1868C26.7378 25.1614 25.6 22.4143 25.6 19.55C25.6 16.6857 26.7378 13.9386 28.7632 11.9132C30.7886 9.88785 33.5356 8.75 36.4 8.75C39.2643 8.75 42.0113 9.88785 44.0367 11.9132C46.0621 13.9386 47.2 16.6857 47.2 19.55Z" fill="#4F4F4F"/>
<path d="M65.2 26.75C65.2 28.6596 64.4415 30.491 63.0912 31.8412C61.741 33.1915 59.9096 33.95 58 33.95C56.0905 33.95 54.2591 33.1915 52.9089 31.8412C51.5586 30.491 50.8 28.6596 50.8 26.75C50.8 24.8405 51.5586 23.0091 52.9089 21.6589C54.2591 20.3086 56.0905 19.55 58 19.55C59.9096 19.55 61.741 20.3086 63.0912 21.6589C64.4415 23.0091 65.2 24.8405 65.2 26.75Z" fill="#4F4F4F"/>
<path d="M50.8 51.95C50.8 48.1309 49.2829 44.4682 46.5823 41.7677C43.8818 39.0672 40.2191 37.55 36.4 37.55C32.5809 37.55 28.9182 39.0672 26.2177 41.7677C23.5171 44.4682 22 48.1309 22 51.95V62.75H50.8V51.95Z" fill="#4F4F4F"/>
<path d="M22 26.75C22 28.6596 21.2414 30.491 19.8911 31.8412C18.5409 33.1915 16.7095 33.95 14.8 33.95C12.8904 33.95 11.0591 33.1915 9.70881 31.8412C8.35854 30.491 7.59998 28.6596 7.59998 26.75C7.59998 24.8405 8.35854 23.0091 9.70881 21.6589C11.0591 20.3086 12.8904 19.55 14.8 19.55C16.7095 19.55 18.5409 20.3086 19.8911 21.6589C21.2414 23.0091 22 24.8405 22 26.75Z" fill="#4F4F4F"/>
<path d="M58 62.7495V51.9495C58.0053 48.2893 57.0759 44.6884 55.3 41.4879C56.8961 41.0794 58.5644 41.0409 60.1776 41.3753C61.7908 41.7096 63.3063 42.408 64.6085 43.4172C65.9108 44.4263 66.9653 45.7196 67.6917 47.1982C68.4181 48.6769 68.7972 50.302 68.8001 51.9495V62.7495H58Z" fill="#4F4F4F"/>
<path d="M17.5 41.4892C15.7243 44.6898 14.795 48.2906 14.8 51.9508V62.7508H4V51.9508C3.99931 50.3021 4.37607 48.6752 5.10141 47.1947C5.82675 45.7142 6.88142 44.4193 8.18458 43.4095C9.48775 42.3996 11.0048 41.7015 12.6195 41.3686C14.2342 41.0358 15.9037 41.077 17.5 41.4892Z" fill="#4F4F4F"/>
</g>
<defs>
<filter id="filter0_i_1_164" x="0" y="0" width="72" height="76" filterUnits="userSpaceOnUse" color-interpolation-filters="sRGB">
<feFlood flood-opacity="0" result="BackgroundImageFix"/>
<feBlend mode="normal" in="SourceGraphic" in2="BackgroundImageFix" result="shape"/>
<feColorMatrix in="SourceAlpha" type="matrix" values="0 0 0 0 0 0 0 0 0 0 0 0 0 0 0 0 0 0 127 0" result="hardAlpha"/>
<feOffset dy="4"/>
<feGaussianBlur stdDeviation="2"/>
<feComposite in2="hardAlpha" operator="arithmetic" k2="-1" k3="1"/>
<feColorMatrix type="matrix" values="0 0 0 0 0 0 0 0 0 0 0 0 0 0 0 0 0 0 0.12 0"/>
<feBlend mode="normal" in2="shape" result="effect1_innerShadow_1_164"/>
</filter>
</defs>
</svg>
