<svg width="362" height="147" viewBox="0 0 362 147" fill="none" xmlns="http://www.w3.org/2000/svg">
<g filter="url(#filter0_d_1_440)">
<mask id="mask0_1_440" style="mask-type:alpha" maskUnits="userSpaceOnUse" x="4" y="0" width="126" height="139">
<mask id="mask1_1_440" style="mask-type:alpha" maskUnits="userSpaceOnUse" x="4" y="66" width="126" height="73">
<rect x="4" y="66" width="126" height="73"/>
</mask>
<g mask="url(#mask1_1_440)">
<rect x="-18" y="-24" width="171" height="182" fill="url(#paint0_linear_1_440)"/>
</g>
<path d="M68.5 43V20H123V76.5H100V43H68.5Z" fill="#7E382D"/>
</mask>
<g mask="url(#mask0_1_440)">
<rect x="-18" y="-22" width="171" height="182" fill="url(#paint1_linear_1_440)"/>
</g>
</g>
<path d="M50.0469 48L50.5092 57.3749L41.0264 50.785L31.4906 57.3811L31.9532 48H27.9483L27.2581 62H31.8446L41.0212 55.6525L50.1553 62H54.7421L54.0518 48H50.0469Z" fill="url(#paint2_linear_1_440)"/>
<path d="M60.9261 19.3644L60.6519 13.3576L55.5875 10.1167L52.346 5.05186L46.3391 4.77686L41 2.01173L35.6609 4.77748L29.654 5.05248L26.4125 10.1167L21.3481 13.3576L21.0739 19.3644L18.308 24.7036L21.0739 30.043L21.3489 36.0496L26.4125 39.2905L29.6535 44.3555L35.6604 44.6299L41 47.3956L46.3391 44.6299L52.346 44.3555L55.587 39.2905L60.6517 36.0501L60.9261 30.0435L63.692 24.7041L60.9261 19.3644ZM56.9704 28.983L56.75 33.7972L52.6906 36.3947L50.0931 40.4541L45.2787 40.6741L41 42.8907L36.7207 40.6741L31.9064 40.4541L29.3089 36.3947L25.25 33.7972L25.0301 28.983L22.8125 24.7036L25.0296 20.4251L25.25 15.6101L29.3089 13.0126L31.9064 8.95336L36.7207 8.73336L41 6.51661L45.2792 8.73323L50.0936 8.95323L52.6911 13.0125L56.75 15.6101L56.9699 20.4245L59.1875 24.7036L56.9704 28.983Z" fill="url(#paint3_linear_1_440)"/>
<g filter="url(#filter1_d_1_440)">
<mask id="mask2_1_440" style="mask-type:alpha" maskUnits="userSpaceOnUse" x="132" y="19" width="128" height="27">
<path d="M153.668 19.8711V20.5273L138.492 43.2773H146.23C148.91 43.2773 150.605 42.9401 151.316 42.2656C152.027 41.5729 152.729 39.8958 153.422 37.2344L154.379 37.4258L153.613 45H132.422V44.3711L147.379 21.5391H140.051C138.082 21.5391 136.797 21.8763 136.195 22.5508C135.594 23.2253 135.174 24.5378 134.938 26.4883H133.98L134.09 19.8711H153.668ZM172.551 19.6797V37.1797C172.551 38.4193 172.724 39.4128 173.07 40.1602C173.745 41.5456 174.984 42.2383 176.789 42.2383C178.029 42.2383 179.241 41.8281 180.426 41.0078C181.1 40.5521 181.784 39.9232 182.477 39.1211V24.1367C182.477 22.7331 182.203 21.8125 181.656 21.375C181.109 20.9375 180.016 20.6732 178.375 20.582V19.6797H187.207V38.9297C187.207 40.1693 187.426 41.026 187.863 41.5C188.319 41.9557 189.267 42.1562 190.707 42.1016V42.8672C189.704 43.1406 188.966 43.3503 188.492 43.4961C188.018 43.6237 187.225 43.8698 186.113 44.2344C185.639 44.3984 184.6 44.7904 182.996 45.4102C182.905 45.4102 182.85 45.3646 182.832 45.2734C182.814 45.2005 182.805 45.1094 182.805 45V40.5977C181.565 42.0742 180.435 43.168 179.414 43.8789C177.865 44.9727 176.224 45.5195 174.492 45.5195C172.906 45.5195 171.411 44.9544 170.008 43.8242C168.586 42.7122 167.875 40.8438 167.875 38.2188V24.0273C167.875 22.569 167.565 21.5938 166.945 21.1016C166.544 20.7917 165.688 20.5729 164.375 20.4453V19.6797H172.551ZM215.934 29.8516C213.837 30.5443 212.105 31.3099 210.738 32.1484C208.113 33.7708 206.801 35.612 206.801 37.6719C206.801 39.3307 207.348 40.5521 208.441 41.3359C209.152 41.8464 209.945 42.1016 210.82 42.1016C212.023 42.1016 213.172 41.7643 214.266 41.0898C215.378 40.4154 215.934 39.5586 215.934 38.5195V29.8516ZM201.934 39.5586C201.934 36.9154 203.255 34.7096 205.898 32.9414C207.576 31.8477 210.921 30.362 215.934 28.4844V26.1602C215.934 24.3008 215.751 23.0065 215.387 22.2773C214.767 21.056 213.482 20.4453 211.531 20.4453C210.602 20.4453 209.717 20.6823 208.879 21.1562C208.04 21.6484 207.621 22.3229 207.621 23.1797C207.621 23.3984 207.667 23.7721 207.758 24.3008C207.849 24.8112 207.895 25.1393 207.895 25.2852C207.895 26.306 207.557 27.0169 206.883 27.418C206.5 27.6549 206.044 27.7734 205.516 27.7734C204.695 27.7734 204.066 27.5091 203.629 26.9805C203.191 26.4336 202.973 25.832 202.973 25.1758C202.973 23.8997 203.757 22.569 205.324 21.1836C206.91 19.7799 209.225 19.0781 212.27 19.0781C215.806 19.0781 218.203 20.2266 219.461 22.5234C220.135 23.7812 220.473 25.6133 220.473 28.0195V38.9844C220.473 40.0417 220.546 40.7708 220.691 41.1719C220.928 41.8828 221.421 42.2383 222.168 42.2383C222.587 42.2383 222.934 42.1745 223.207 42.0469C223.48 41.9193 223.954 41.6094 224.629 41.1172V42.5391C224.046 43.25 223.417 43.8333 222.742 44.2891C221.721 44.9818 220.682 45.3281 219.625 45.3281C218.385 45.3281 217.483 44.9271 216.918 44.125C216.371 43.3229 216.07 42.3659 216.016 41.2539C214.63 42.457 213.445 43.3503 212.461 43.9336C210.802 44.918 209.225 45.4102 207.73 45.4102C206.163 45.4102 204.805 44.8633 203.656 43.7695C202.508 42.6576 201.934 41.2539 201.934 39.5586ZM233.777 44.2344C235.072 44.0703 235.974 43.7513 236.484 43.2773C237.013 42.7852 237.277 41.7005 237.277 40.0234V26.1602C237.277 24.9935 237.168 24.1732 236.949 23.6992C236.603 23.0065 235.892 22.6602 234.816 22.6602C234.652 22.6602 234.479 22.6693 234.297 22.6875C234.133 22.7057 233.923 22.7331 233.668 22.7695V21.8125C234.415 21.5938 236.184 21.0286 238.973 20.1172L241.543 19.2695C241.671 19.2695 241.743 19.3151 241.762 19.4062C241.798 19.4974 241.816 19.625 241.816 19.7891V23.8086C243.493 22.2409 244.806 21.1654 245.754 20.582C247.176 19.6888 248.652 19.2422 250.184 19.2422C251.423 19.2422 252.553 19.5977 253.574 20.3086C255.543 21.694 256.527 24.1641 256.527 27.7188V40.4883C256.527 41.8008 256.792 42.7487 257.32 43.332C257.849 43.9154 258.733 44.2161 259.973 44.2344V45H248.297V44.2344C249.628 44.0521 250.557 43.6875 251.086 43.1406C251.615 42.5755 251.879 41.3633 251.879 39.5039V27.8281C251.879 26.2604 251.587 24.9661 251.004 23.9453C250.421 22.9062 249.345 22.3867 247.777 22.3867C246.702 22.3867 245.608 22.7513 244.496 23.4805C243.876 23.8997 243.074 24.5924 242.09 25.5586V40.8711C242.09 42.1836 242.382 43.0677 242.965 43.5234C243.548 43.9609 244.469 44.1979 245.727 44.2344V45H233.777V44.2344Z" fill="#DCC394"/>
</mask>
<g mask="url(#mask2_1_440)">
<rect x="125" y="2" width="246" height="68" fill="url(#paint4_linear_1_440)"/>
</g>
</g>
<path d="M134.537 91.4043V109H132.076V86.8105H134.435L134.537 91.4043ZM134.086 96.5312L132.896 95.916C132.979 94.6035 133.225 93.373 133.635 92.2246C134.059 91.0762 134.646 90.0645 135.398 89.1895C136.15 88.3145 137.053 87.6309 138.105 87.1387C139.158 86.6465 140.354 86.4004 141.694 86.4004C142.774 86.4004 143.752 86.5508 144.627 86.8516C145.516 87.1387 146.268 87.5967 146.883 88.2256C147.512 88.8408 147.997 89.6475 148.339 90.6455C148.681 91.6436 148.852 92.8398 148.852 94.2344V109H146.411V94.3164C146.411 92.8398 146.179 91.6846 145.714 90.8506C145.263 90.0166 144.627 89.4219 143.807 89.0664C143 88.7109 142.063 88.5332 140.997 88.5332C139.739 88.5332 138.673 88.793 137.798 89.3125C136.937 89.8184 136.232 90.4814 135.686 91.3018C135.152 92.1084 134.756 92.9766 134.496 93.9062C134.236 94.8223 134.1 95.6973 134.086 96.5312ZM148.831 94.6035L147.19 94.6445C147.259 93.5645 147.505 92.5322 147.929 91.5479C148.366 90.5635 148.961 89.6885 149.713 88.9229C150.465 88.1436 151.36 87.5283 152.399 87.0771C153.452 86.626 154.635 86.4004 155.947 86.4004C157.096 86.4004 158.121 86.5576 159.023 86.8721C159.926 87.1729 160.685 87.6582 161.3 88.3281C161.929 88.9844 162.407 89.8252 162.735 90.8506C163.063 91.876 163.228 93.1064 163.228 94.542V109H160.767V94.5215C160.767 92.9492 160.534 91.7324 160.069 90.8711C159.618 89.9961 158.989 89.3877 158.183 89.0459C157.376 88.7041 156.433 88.5332 155.353 88.5332C154.286 88.5469 153.35 88.7451 152.543 89.1279C151.736 89.4971 151.06 89.9893 150.513 90.6045C149.979 91.2061 149.569 91.8555 149.282 92.5527C149.009 93.25 148.858 93.9336 148.831 94.6035ZM177.034 109.41C175.585 109.41 174.252 109.144 173.035 108.61C171.832 108.077 170.779 107.325 169.877 106.354C168.988 105.384 168.298 104.235 167.806 102.909C167.327 101.569 167.088 100.106 167.088 98.5205V97.6387C167.088 95.9297 167.341 94.3848 167.847 93.0039C168.353 91.623 169.05 90.4404 169.938 89.4561C170.827 88.4717 171.839 87.7197 172.974 87.2002C174.122 86.667 175.325 86.4004 176.583 86.4004C177.991 86.4004 179.242 86.6533 180.336 87.1592C181.43 87.6514 182.346 88.3555 183.084 89.2715C183.836 90.1738 184.403 91.2471 184.786 92.4912C185.169 93.7217 185.36 95.082 185.36 96.5723V98.0693H168.564V95.9775H182.92V95.6904C182.893 94.4463 182.64 93.2842 182.161 92.2041C181.696 91.1104 180.999 90.2217 180.069 89.5381C179.14 88.8545 177.978 88.5127 176.583 88.5127C175.544 88.5127 174.587 88.7314 173.712 89.1689C172.851 89.6064 172.105 90.2354 171.477 91.0557C170.861 91.8623 170.383 92.8262 170.041 93.9473C169.713 95.0547 169.549 96.2852 169.549 97.6387V98.5205C169.549 99.751 169.727 100.899 170.082 101.966C170.451 103.019 170.971 103.948 171.641 104.755C172.324 105.562 173.131 106.19 174.061 106.642C174.99 107.093 176.016 107.318 177.137 107.318C178.449 107.318 179.611 107.079 180.623 106.601C181.635 106.108 182.544 105.336 183.351 104.283L184.889 105.473C184.41 106.184 183.809 106.84 183.084 107.441C182.373 108.043 181.519 108.521 180.521 108.877C179.522 109.232 178.36 109.41 177.034 109.41ZM191.518 91.4043V109H189.057V86.8105H191.415L191.518 91.4043ZM191.066 96.5312L189.877 95.916C189.959 94.6035 190.205 93.373 190.615 92.2246C191.039 91.0762 191.627 90.0645 192.379 89.1895C193.131 88.3145 194.033 87.6309 195.086 87.1387C196.139 86.6465 197.335 86.4004 198.675 86.4004C199.755 86.4004 200.732 86.5508 201.607 86.8516C202.496 87.1387 203.248 87.5967 203.863 88.2256C204.492 88.8408 204.978 89.6475 205.319 90.6455C205.661 91.6436 205.832 92.8398 205.832 94.2344V109H203.392V94.3164C203.392 92.8398 203.159 91.6846 202.694 90.8506C202.243 90.0166 201.607 89.4219 200.787 89.0664C199.98 88.7109 199.044 88.5332 197.978 88.5332C196.72 88.5332 195.653 88.793 194.778 89.3125C193.917 89.8184 193.213 90.4814 192.666 91.3018C192.133 92.1084 191.736 92.9766 191.477 93.9062C191.217 94.8223 191.08 95.6973 191.066 96.5312ZM205.812 94.6035L204.171 94.6445C204.239 93.5645 204.485 92.5322 204.909 91.5479C205.347 90.5635 205.941 89.6885 206.693 88.9229C207.445 88.1436 208.341 87.5283 209.38 87.0771C210.433 86.626 211.615 86.4004 212.928 86.4004C214.076 86.4004 215.102 86.5576 216.004 86.8721C216.906 87.1729 217.665 87.6582 218.28 88.3281C218.909 88.9844 219.388 89.8252 219.716 90.8506C220.044 91.876 220.208 93.1064 220.208 94.542V109H217.747V94.5215C217.747 92.9492 217.515 91.7324 217.05 90.8711C216.599 89.9961 215.97 89.3877 215.163 89.0459C214.356 88.7041 213.413 88.5332 212.333 88.5332C211.267 88.5469 210.33 88.7451 209.523 89.1279C208.717 89.4971 208.04 89.9893 207.493 90.6045C206.96 91.2061 206.55 91.8555 206.263 92.5527C205.989 93.25 205.839 93.9336 205.812 94.6035ZM225.401 77.5H227.862V104.693L227.698 109H225.401V77.5ZM243.305 97.7002V98.1309C243.305 99.7852 243.113 101.303 242.73 102.684C242.348 104.064 241.794 105.261 241.069 106.272C240.345 107.271 239.456 108.043 238.403 108.59C237.364 109.137 236.168 109.41 234.814 109.41C233.488 109.41 232.312 109.205 231.287 108.795C230.262 108.371 229.387 107.776 228.662 107.011C227.938 106.231 227.356 105.322 226.919 104.283C226.481 103.23 226.174 102.075 225.996 100.817V95.3418C226.201 94.002 226.529 92.7852 226.98 91.6914C227.432 90.5977 228.013 89.6543 228.724 88.8613C229.448 88.0684 230.31 87.46 231.308 87.0361C232.319 86.6123 233.475 86.4004 234.773 86.4004C236.127 86.4004 237.33 86.667 238.383 87.2002C239.449 87.7197 240.345 88.4785 241.069 89.4766C241.794 90.4609 242.348 91.6504 242.73 93.0449C243.113 94.4258 243.305 95.9775 243.305 97.7002ZM240.823 98.1309V97.7002C240.823 96.4014 240.7 95.1982 240.454 94.0908C240.208 92.9834 239.818 92.0195 239.285 91.1992C238.766 90.3652 238.096 89.7158 237.275 89.251C236.455 88.7861 235.471 88.5537 234.322 88.5537C233.146 88.5537 232.142 88.752 231.308 89.1484C230.487 89.5312 229.804 90.0439 229.257 90.6865C228.724 91.3154 228.3 92.0059 227.985 92.7578C227.671 93.5098 227.438 94.248 227.288 94.9727V101.351C227.521 102.376 227.924 103.34 228.498 104.242C229.072 105.145 229.845 105.876 230.815 106.437C231.786 106.983 232.969 107.257 234.363 107.257C235.484 107.257 236.448 107.024 237.255 106.56C238.075 106.095 238.745 105.452 239.265 104.632C239.798 103.812 240.188 102.848 240.434 101.74C240.693 100.633 240.823 99.4297 240.823 98.1309ZM256.312 109.41C254.862 109.41 253.529 109.144 252.312 108.61C251.109 108.077 250.057 107.325 249.154 106.354C248.266 105.384 247.575 104.235 247.083 102.909C246.604 101.569 246.365 100.106 246.365 98.5205V97.6387C246.365 95.9297 246.618 94.3848 247.124 93.0039C247.63 91.623 248.327 90.4404 249.216 89.4561C250.104 88.4717 251.116 87.7197 252.251 87.2002C253.399 86.667 254.603 86.4004 255.86 86.4004C257.269 86.4004 258.52 86.6533 259.613 87.1592C260.707 87.6514 261.623 88.3555 262.361 89.2715C263.113 90.1738 263.681 91.2471 264.063 92.4912C264.446 93.7217 264.638 95.082 264.638 96.5723V98.0693H247.842V95.9775H262.197V95.6904C262.17 94.4463 261.917 93.2842 261.438 92.2041C260.974 91.1104 260.276 90.2217 259.347 89.5381C258.417 88.8545 257.255 88.5127 255.86 88.5127C254.821 88.5127 253.864 88.7314 252.989 89.1689C252.128 89.6064 251.383 90.2354 250.754 91.0557C250.139 91.8623 249.66 92.8262 249.318 93.9473C248.99 95.0547 248.826 96.2852 248.826 97.6387V98.5205C248.826 99.751 249.004 100.899 249.359 101.966C249.729 103.019 250.248 103.948 250.918 104.755C251.602 105.562 252.408 106.19 253.338 106.642C254.268 107.093 255.293 107.318 256.414 107.318C257.727 107.318 258.889 107.079 259.9 106.601C260.912 106.108 261.821 105.336 262.628 104.283L264.166 105.473C263.688 106.184 263.086 106.84 262.361 107.441C261.65 108.043 260.796 108.521 259.798 108.877C258.8 109.232 257.638 109.41 256.312 109.41ZM270.918 90.4814V109H268.478V86.8105H270.856L270.918 90.4814ZM278.772 86.6465L278.711 88.9023C278.438 88.8613 278.171 88.8271 277.911 88.7998C277.651 88.7725 277.371 88.7588 277.07 88.7588C276.004 88.7588 275.067 88.957 274.261 89.3535C273.468 89.7363 272.798 90.2764 272.251 90.9736C271.704 91.6572 271.287 92.4639 271 93.3936C270.713 94.3096 270.549 95.2939 270.508 96.3467L269.605 96.6953C269.605 95.2461 269.756 93.8994 270.057 92.6553C270.357 91.4111 270.815 90.3242 271.431 89.3945C272.06 88.4512 272.846 87.7197 273.789 87.2002C274.746 86.667 275.867 86.4004 277.152 86.4004C277.467 86.4004 277.774 86.4277 278.075 86.4824C278.39 86.5234 278.622 86.5781 278.772 86.6465ZM294.917 103.34C294.917 102.738 294.767 102.144 294.466 101.556C294.165 100.968 293.584 100.428 292.723 99.9355C291.875 99.4434 290.624 99.0264 288.97 98.6846C287.739 98.4111 286.639 98.1035 285.668 97.7617C284.711 97.4199 283.904 97.0098 283.248 96.5312C282.592 96.0527 282.093 95.4785 281.751 94.8086C281.409 94.1387 281.238 93.3457 281.238 92.4297C281.238 91.6094 281.416 90.8369 281.771 90.1123C282.141 89.374 282.66 88.7314 283.33 88.1846C284.014 87.624 284.834 87.1865 285.791 86.8721C286.762 86.5576 287.849 86.4004 289.052 86.4004C290.761 86.4004 292.224 86.6943 293.44 87.2822C294.671 87.8564 295.607 88.6426 296.25 89.6406C296.906 90.6387 297.234 91.7666 297.234 93.0244H294.794C294.794 92.2588 294.568 91.5342 294.117 90.8506C293.68 90.167 293.03 89.6064 292.169 89.1689C291.321 88.7314 290.282 88.5127 289.052 88.5127C287.78 88.5127 286.748 88.7041 285.955 89.0869C285.162 89.4697 284.581 89.9551 284.212 90.543C283.856 91.1309 283.679 91.7393 283.679 92.3682C283.679 92.8604 283.754 93.3115 283.904 93.7217C284.068 94.1182 284.355 94.4873 284.766 94.8291C285.189 95.1709 285.791 95.4922 286.57 95.793C287.35 96.0938 288.361 96.3877 289.605 96.6748C291.396 97.0713 292.859 97.5566 293.994 98.1309C295.143 98.6914 295.99 99.3887 296.537 100.223C297.084 101.043 297.357 102.041 297.357 103.217C297.357 104.133 297.166 104.974 296.783 105.739C296.4 106.491 295.847 107.141 295.122 107.688C294.411 108.234 293.55 108.658 292.538 108.959C291.54 109.26 290.419 109.41 289.175 109.41C287.302 109.41 285.716 109.103 284.417 108.487C283.132 107.858 282.154 107.038 281.484 106.026C280.828 105.001 280.5 103.914 280.5 102.766H282.94C283.022 103.914 283.385 104.823 284.027 105.493C284.67 106.149 285.456 106.614 286.386 106.888C287.329 107.161 288.259 107.298 289.175 107.298C290.433 107.298 291.485 107.113 292.333 106.744C293.181 106.375 293.823 105.89 294.261 105.288C294.698 104.687 294.917 104.037 294.917 103.34ZM304.355 77.5V109H301.915V77.5H304.355ZM303.802 96.5312L302.715 95.916C302.797 94.6035 303.063 93.373 303.515 92.2246C303.966 91.0762 304.574 90.0645 305.34 89.1895C306.119 88.3145 307.028 87.6309 308.067 87.1387C309.12 86.6465 310.282 86.4004 311.554 86.4004C312.661 86.4004 313.652 86.5508 314.527 86.8516C315.402 87.1523 316.147 87.6309 316.763 88.2871C317.378 88.9434 317.843 89.7842 318.157 90.8096C318.485 91.835 318.649 93.0859 318.649 94.5625V109H316.188V94.542C316.188 93.0107 315.977 91.8145 315.553 90.9531C315.129 90.0781 314.527 89.4561 313.748 89.0869C312.969 88.7178 312.046 88.5332 310.979 88.5332C309.804 88.5332 308.771 88.793 307.883 89.3125C307.008 89.8184 306.27 90.4814 305.668 91.3018C305.08 92.1084 304.629 92.9766 304.314 93.9062C304 94.8223 303.829 95.6973 303.802 96.5312ZM326.693 86.8105V109H324.253V86.8105H326.693ZM323.822 80.3916C323.822 79.9268 323.966 79.5371 324.253 79.2227C324.554 78.8945 324.964 78.7305 325.483 78.7305C326.003 78.7305 326.413 78.8945 326.714 79.2227C327.028 79.5371 327.186 79.9268 327.186 80.3916C327.186 80.8428 327.028 81.2324 326.714 81.5605C326.413 81.875 326.003 82.0322 325.483 82.0322C324.964 82.0322 324.554 81.875 324.253 81.5605C323.966 81.2324 323.822 80.8428 323.822 80.3916ZM334.819 91.0762V117.531H332.358V86.8105H334.655L334.819 91.0762ZM350.241 97.7002V98.1309C350.241 99.7852 350.05 101.303 349.667 102.684C349.284 104.064 348.73 105.261 348.006 106.272C347.295 107.271 346.413 108.043 345.36 108.59C344.308 109.137 343.111 109.41 341.771 109.41C340.445 109.41 339.263 109.205 338.224 108.795C337.185 108.385 336.289 107.804 335.537 107.052C334.799 106.286 334.204 105.397 333.753 104.386C333.315 103.36 333.008 102.239 332.83 101.022V95.3418C333.035 94.002 333.37 92.7852 333.835 91.6914C334.3 90.5977 334.895 89.6543 335.619 88.8613C336.357 88.0684 337.232 87.46 338.244 87.0361C339.256 86.6123 340.411 86.4004 341.71 86.4004C343.063 86.4004 344.267 86.667 345.319 87.2002C346.386 87.7197 347.281 88.4785 348.006 89.4766C348.744 90.4609 349.298 91.6504 349.667 93.0449C350.05 94.4258 350.241 95.9775 350.241 97.7002ZM347.78 98.1309V97.7002C347.78 96.4014 347.644 95.1982 347.37 94.0908C347.11 92.9834 346.707 92.0195 346.16 91.1992C345.627 90.3652 344.943 89.7158 344.109 89.251C343.289 88.7861 342.312 88.5537 341.177 88.5537C340.001 88.5537 338.996 88.752 338.162 89.1484C337.342 89.5312 336.658 90.0439 336.111 90.6865C335.564 91.3154 335.134 92.0059 334.819 92.7578C334.505 93.5098 334.272 94.248 334.122 94.9727V101.515C334.382 102.554 334.799 103.518 335.373 104.406C335.947 105.281 336.713 105.985 337.67 106.519C338.641 107.038 339.823 107.298 341.218 107.298C342.339 107.298 343.31 107.065 344.13 106.601C344.95 106.136 345.627 105.486 346.16 104.652C346.707 103.818 347.11 102.848 347.37 101.74C347.644 100.633 347.78 99.4297 347.78 98.1309Z" fill="url(#paint5_linear_1_440)"/>
<defs>
<filter id="filter0_d_1_440" x="0" y="0" width="134" height="147" filterUnits="userSpaceOnUse" color-interpolation-filters="sRGB">
<feFlood flood-opacity="0" result="BackgroundImageFix"/>
<feColorMatrix in="SourceAlpha" type="matrix" values="0 0 0 0 0 0 0 0 0 0 0 0 0 0 0 0 0 0 127 0" result="hardAlpha"/>
<feOffset dy="4"/>
<feGaussianBlur stdDeviation="2"/>
<feColorMatrix type="matrix" values="0 0 0 0 0 0 0 0 0 0 0 0 0 0 0 0 0 0 0.25 0"/>
<feBlend mode="normal" in2="BackgroundImageFix" result="effect1_dropShadow_1_440"/>
<feBlend mode="normal" in="SourceGraphic" in2="effect1_dropShadow_1_440" result="shape"/>
</filter>
<filter id="filter1_d_1_440" x="128.422" y="19.0781" width="135.551" height="34.4414" filterUnits="userSpaceOnUse" color-interpolation-filters="sRGB">
<feFlood flood-opacity="0" result="BackgroundImageFix"/>
<feColorMatrix in="SourceAlpha" type="matrix" values="0 0 0 0 0 0 0 0 0 0 0 0 0 0 0 0 0 0 127 0" result="hardAlpha"/>
<feOffset dy="4"/>
<feGaussianBlur stdDeviation="2"/>
<feColorMatrix type="matrix" values="0 0 0 0 0 0 0 0 0 0 0 0 0 0 0 0 0 0 0.25 0"/>
<feBlend mode="normal" in2="BackgroundImageFix" result="effect1_dropShadow_1_440"/>
<feBlend mode="normal" in="SourceGraphic" in2="effect1_dropShadow_1_440" result="shape"/>
</filter>
<linearGradient id="paint0_linear_1_440" x1="78" y1="75" x2="186.492" y2="78.9132" gradientUnits="userSpaceOnUse">
<stop stop-color="#97493C"/>
<stop offset="1" stop-color="#BC685C"/>
</linearGradient>
<linearGradient id="paint1_linear_1_440" x1="-18" y1="-22" x2="197.594" y2="43.036" gradientUnits="userSpaceOnUse">
<stop stop-color="#121111"/>
<stop offset="1" stop-color="#494747"/>
</linearGradient>
<linearGradient id="paint2_linear_1_440" x1="27.2581" y1="48" x2="54.314" y2="65.0533" gradientUnits="userSpaceOnUse">
<stop stop-color="#121111"/>
<stop offset="1" stop-color="#494747"/>
</linearGradient>
<linearGradient id="paint3_linear_1_440" x1="18.308" y1="2.01173" x2="74.9004" y2="20.1817" gradientUnits="userSpaceOnUse">
<stop stop-color="#121111"/>
<stop offset="1" stop-color="#494747"/>
</linearGradient>
<linearGradient id="paint4_linear_1_440" x1="125" y1="2" x2="269.046" y2="169.309" gradientUnits="userSpaceOnUse">
<stop stop-color="#121111"/>
<stop offset="1" stop-color="#494747"/>
</linearGradient>
<linearGradient id="paint5_linear_1_440" x1="129" y1="64" x2="259.502" y2="221.462" gradientUnits="userSpaceOnUse">
<stop stop-color="#121111"/>
<stop offset="1" stop-color="#494747"/>
</linearGradient>
</defs>
</svg>
