<svg width="72" height="72" viewBox="0 0 72 72" fill="none" xmlns="http://www.w3.org/2000/svg">
<g clip-path="url(#clip0_1_1919)">
<g filter="url(#filter0_d_1_1919)">
<path d="M58.5879 10.75C56.1331 13.0994 53.213 14.9079 50.016 16.059C46.645 16.6539 37.316 12.3274 32.7191 16.744C31.9529 17.5101 31.0065 18.2763 30.015 19.0424C27.8518 18.096 24.5168 16.6539 22.0831 15.2568C19.6495 13.8597 13.5203 10.75 13.5203 10.75L0 26.5237C0 26.5237 3.335 31.0304 5.40811 34.0049C6.76014 35.9879 8.42764 39.0074 9.50926 41.0354L7.97697 42.8381C7.61002 43.5671 7.47799 44.3918 7.59905 45.1989C7.72011 46.006 8.08831 46.7557 8.65298 47.3449C9.30475 47.8335 10.0978 48.0969 10.9124 48.0953C11.727 48.0937 12.5189 47.8271 13.1688 47.3359C12.9278 47.618 12.7455 47.9453 12.6323 48.2986C12.5192 48.6519 12.4776 49.0243 12.5099 49.3939C12.5422 49.7635 12.6478 50.1229 12.8205 50.4513C12.9932 50.7796 13.2295 51.0703 13.5158 51.3063C14.204 51.7083 14.9869 51.9193 15.7839 51.9177C16.5809 51.9162 17.363 51.702 18.0496 51.2973C17.5347 51.9391 17.2529 52.7368 17.2504 53.5596C17.248 54.3824 17.525 55.1817 18.0361 55.8266C18.7004 56.0566 19.4089 56.1299 20.1063 56.0408C20.8036 55.9516 21.4709 55.7025 22.0561 55.3128C21.7646 56.0028 21.6891 56.765 21.8395 57.4987C21.99 58.2325 22.3593 58.9034 22.8988 59.423C23.661 59.7617 24.4966 59.9013 25.3274 59.8287C26.1582 59.7562 26.957 59.474 27.649 59.0084L29.9745 56.9037C32.1017 59.0219 35.0356 60.3334 38.2759 60.3334L38.5508 60.3289C39.6187 60.2377 40.6416 59.8578 41.5102 59.2299C42.3787 58.6019 43.06 57.7495 43.4812 56.764C44.1392 57.0164 44.8873 57.1877 45.6805 57.1877C46.7441 57.1877 47.7311 56.8812 48.5648 56.3539C51.2013 54.6098 50.5704 53.2578 50.5704 53.2578C51.5078 53.6613 52.5492 53.757 53.5445 53.531C54.5398 53.3051 55.4378 52.7691 56.1092 52.0004C56.8068 51.2867 57.2467 50.3609 57.3594 49.3692C57.472 48.3775 57.2509 47.3766 56.7311 46.5247C56.7596 46.5417 56.7926 46.5495 56.8257 46.5472C58.7231 46.5472 60.3726 45.5016 61.2333 43.9603C61.6569 42.8648 61.8001 41.6809 61.6498 40.516C61.4994 39.3512 61.0604 38.2423 60.3726 37.2903L60.3861 37.3128C64.0816 36.5918 63.9464 34.744 65.7491 32.0399C67.456 29.8333 69.5799 27.9835 72 26.5958L58.5879 10.75ZM58.3625 42.5677C56.3796 44.5507 54.8473 43.6944 51.4672 41.1256C48.0871 38.5567 41.3721 33.7345 41.3721 33.7345C41.647 35.109 42.2824 36.3033 43.1793 37.2543C44.6169 38.8722 48.8983 42.5677 50.9264 44.4606C52.1883 45.6323 55.4332 47.9758 53.5403 49.7785C51.6475 51.5812 50.1602 49.7785 47.0506 47.2548C43.9409 44.731 37.0005 38.5116 37.0005 38.5116C36.9623 39.1078 37.051 39.7053 37.2607 40.2647C37.4705 40.824 37.7965 41.3325 38.2173 41.7565C38.9835 42.6579 43.2649 46.8041 45.0676 48.6969C46.8703 50.5898 48.4477 51.7164 46.9154 53.2037C45.3831 54.6909 42.2734 52.3474 40.5608 50.5898C37.9019 48.0209 32.6289 43.2437 32.6289 43.2437L32.6244 43.4826C32.6244 44.7625 33.0661 45.9343 33.8097 46.8627C35.1077 48.5662 37.6314 50.7745 39.1637 52.4871C40.696 54.1997 41.5974 55.6418 39.1637 56.9939C36.7301 58.3459 33.1247 55.0109 31.5473 53.3885V53.3794C31.5476 52.9343 31.3877 52.5039 31.0966 52.1671C30.5576 51.6677 29.8924 51.3249 29.1729 51.1756C28.4534 51.0263 27.7068 51.0762 27.0135 51.3199C27.2988 51.0645 27.5274 50.7523 27.6848 50.4032C27.8422 50.0542 27.9248 49.6761 27.9273 49.2933C27.9299 48.9104 27.8523 48.5313 27.6996 48.1802C27.5469 47.8291 27.3224 47.5139 27.0406 47.2548C26.449 46.8065 25.7269 46.5643 24.9847 46.5651C24.2425 46.566 23.521 46.8097 22.9304 47.2593C23.229 46.974 23.4596 46.6251 23.6049 46.2386C23.7502 45.852 23.8065 45.4377 23.7697 45.0263C23.7329 44.615 23.6039 44.2172 23.3923 43.8626C23.1807 43.508 22.8918 43.2055 22.5473 42.9778C21.7405 42.4709 20.7938 42.2327 19.8432 42.2975C18.8926 42.3623 17.9869 42.7267 17.2564 43.3384C17.7447 42.7466 17.9854 41.989 17.9283 41.224C17.8712 40.4589 17.5206 39.7455 16.9499 39.2327C16.2406 38.5725 15.3367 38.1596 14.3733 38.0556C13.4099 37.9516 12.4387 38.1622 11.6049 38.6559L8.60791 33.5948C6.5348 30.3048 4.10115 26.8797 4.10115 26.8797L14.3766 14.396C14.3766 14.396 18.027 16.6493 21.0466 18.3619C22.5338 19.2182 25.1027 20.3449 27.0406 21.2462C23.976 23.5447 21.4071 25.753 22.1733 27.2853C23.5386 28.2654 25.1703 28.806 26.8507 28.835C28.5312 28.864 30.1805 28.38 31.5789 27.4475C33.3718 26.2556 35.4785 25.6235 37.6314 25.6313C39.1953 25.6313 40.6825 25.9558 42.03 26.5462C44.5268 28.2317 49.1237 32.3779 53.315 34.9919C58.5879 38.8226 59.6244 41.3013 58.3625 42.5632V42.5677Z" fill="#000"/>
</g>
</g>
<defs>
<filter id="filter0_d_1_1919" x="-12" y="2.75" width="96" height="73.5834" filterUnits="userSpaceOnUse" color-interpolation-filters="sRGB">
<feFlood flood-opacity="0" result="BackgroundImageFix"/>
<feColorMatrix in="SourceAlpha" type="matrix" values="0 0 0 0 0 0 0 0 0 0 0 0 0 0 0 0 0 0 127 0" result="hardAlpha"/>
<feOffset dy="4"/>
<feGaussianBlur stdDeviation="6"/>
<feColorMatrix type="matrix" values="0 0 0 0 0 0 0 0 0 0 0 0 0 0 0 0 0 0 0.24 0"/>
<feBlend mode="normal" in2="BackgroundImageFix" result="effect1_dropShadow_1_1919"/>
<feBlend mode="normal" in="SourceGraphic" in2="effect1_dropShadow_1_1919" result="shape"/>
</filter>
<clipPath id="clip0_1_1919">
<rect width="72" height="72" fill="#000"/>
</clipPath>
</defs>
</svg>
