<svg width="72" height="65" viewBox="0 0 72 65" fill="none" xmlns="http://www.w3.org/2000/svg">
<g filter="url(#filter0_i_1_144)">
<path d="M20.492 21.75L23.656 0.75H7.2L0.324 18.75C0.112 19.39 0 20.054 0 20.75C0 25.166 4.6 28.75 10.284 28.75C15.524 28.75 19.856 25.694 20.492 21.75ZM36 28.75C41.68 28.75 46.284 25.166 46.284 20.75C46.284 20.586 46.272 20.422 46.264 20.266L44.228 0.75H27.772L25.732 20.25C25.724 20.414 25.716 20.578 25.716 20.75C25.716 25.166 30.32 28.75 36 28.75ZM56 32.934V48.75H16V32.958C14.248 33.59 12.32 33.95 10.284 33.95C9.504 33.95 8.748 33.858 8 33.754V59.15C8 62.23 10.516 64.75 13.592 64.75H58.4C61.48 64.75 64 62.226 64 59.15V33.758C63.2439 33.8741 62.4809 33.9396 61.716 33.954C59.7656 33.952 57.8307 33.6068 56 32.934ZM71.68 18.75L64.796 0.75H48.344L51.504 21.718C52.12 25.678 56.452 28.75 61.716 28.75C67.396 28.75 72 25.166 72 20.75C72 20.054 71.888 19.39 71.68 18.75Z" fill="#000"/>
</g>
<defs>
<filter id="filter0_i_1_144" x="0" y="0.75" width="72" height="68" filterUnits="userSpaceOnUse" color-interpolation-filters="sRGB">
<feFlood flood-opacity="0" result="BackgroundImageFix"/>
<feBlend mode="normal" in="SourceGraphic" in2="BackgroundImageFix" result="shape"/>
<feColorMatrix in="SourceAlpha" type="matrix" values="0 0 0 0 0 0 0 0 0 0 0 0 0 0 0 0 0 0 127 0" result="hardAlpha"/>
<feOffset dy="4"/>
<feGaussianBlur stdDeviation="2"/>
<feComposite in2="hardAlpha" operator="arithmetic" k2="-1" k3="1"/>
<feColorMatrix type="matrix" values="0 0 0 0 0 0 0 0 0 0 0 0 0 0 0 0 0 0 0.12 0"/>
<feBlend mode="normal" in2="shape" result="effect1_innerShadow_1_144"/>
</filter>
<linearGradient id="paint0_linear_1_144" x1="32.88" y1="35.4167" x2="121.295" y2="126.454" gradientUnits="userSpaceOnUse">
<stop stop-color="#DC7666"/>
<stop offset="1" stop-color="#FBDE53"/>
</linearGradient>
</defs>
</svg>
