<svg width="18" height="17" viewBox="0 0 18" fill="#F2C94C" xmlns="http://www.w3.org/2000/svg">

<path d="M17 7.39013C17.1858 7.2517 17.3237 7.05857 17.3942 6.83784C17.4647 6.61711 17.4644 6.37983 17.3933 6.15929C17.3222 5.93875 17.1838 5.74599 16.9976 5.60806C16.8114 5.47012 16.5867 5.39392 16.355 5.39013L11.855 5.22013C11.8329 5.21861 11.8116 5.21071 11.7939 5.19741C11.7762 5.1841 11.7626 5.16595 11.755 5.14513L10.2 0.945134C10.1219 0.731454 9.97995 0.546943 9.79348 0.416582C9.60702 0.286222 9.385 0.216309 9.15748 0.216309C8.92997 0.216309 8.70794 0.286222 8.52148 0.416582C8.33501 0.546943 8.19311 0.731454 8.11498 0.945134L6.56498 5.16013C6.55732 5.18095 6.5438 5.1991 6.52606 5.21241C6.50832 5.22571 6.48711 5.23361 6.46498 5.23513L1.96498 5.40513C1.73328 5.40892 1.50858 5.48512 1.32238 5.62306C1.13618 5.76099 0.997812 5.95375 0.926686 6.17429C0.855561 6.39483 0.855242 6.63211 0.925774 6.85284C0.996305 7.07357 1.13415 7.2667 1.31998 7.40513L4.84998 10.1801C4.86765 10.194 4.88085 10.2128 4.88796 10.2341C4.89507 10.2555 4.89577 10.2784 4.88998 10.3001L3.67498 14.6051C3.61202 14.8244 3.61812 15.0576 3.69245 15.2733C3.76678 15.4889 3.90573 15.6764 4.09041 15.8103C4.27508 15.9441 4.4965 16.0179 4.72456 16.0214C4.95261 16.025 5.17623 15.9582 5.36498 15.8301L9.09498 13.3301C9.11336 13.3174 9.13515 13.3107 9.15748 13.3107C9.17981 13.3107 9.20161 13.3174 9.21998 13.3301L12.95 15.8301C13.1362 15.9626 13.359 16.0337 13.5875 16.0337C13.816 16.0337 14.0388 15.9626 14.225 15.8301C14.4097 15.6975 14.5488 15.511 14.6231 15.2961C14.6974 15.0812 14.7033 14.8485 14.64 14.6301L13.415 10.3101C13.4085 10.2884 13.4088 10.2653 13.416 10.2438C13.4232 10.2223 13.4368 10.2036 13.455 10.1901L17 7.39013Z" />

<path d="M17 7.39013L16.7012 6.98901L16.6901 6.99776L17 7.39013ZM16.355 5.39013L16.3361 5.88989L16.3468 5.89007L16.355 5.39013ZM11.855 5.22013L11.8205 5.71895L11.8283 5.71948L11.8361 5.71978L11.855 5.22013ZM11.755 5.14513L12.2242 4.97241L12.2239 4.97153L11.755 5.14513ZM10.2 0.945134L9.73038 1.11684L9.73109 1.11874L10.2 0.945134ZM9.15748 0.216309V-0.283691V0.216309ZM8.11498 0.945134L8.58426 1.1177L8.58458 1.11683L8.11498 0.945134ZM6.56498 5.16013L7.0342 5.33286L7.03426 5.3327L6.56498 5.16013ZM6.46498 5.23513L6.48386 5.73478L6.49164 5.73448L6.49942 5.73395L6.46498 5.23513ZM1.96498 5.40513L1.97315 5.90518L1.98386 5.90478L1.96498 5.40513ZM1.31998 7.40513L1.62909 7.01192L1.61869 7.00417L1.31998 7.40513ZM4.84998 10.1801L5.15919 9.78721L5.15899 9.78705L4.84998 10.1801ZM4.88998 10.3001L5.37123 10.436L5.3731 10.4289L4.88998 10.3001ZM3.67498 14.6051L4.15556 14.7432L4.15618 14.7409L3.67498 14.6051ZM5.36498 15.8301L5.0866 15.4148L5.08429 15.4164L5.36498 15.8301ZM9.09498 13.3301L9.37339 13.7455L9.37907 13.7416L9.09498 13.3301ZM9.21998 13.3301L8.93586 13.7416L8.9416 13.7455L9.21998 13.3301ZM12.95 15.8301L13.2399 15.4225L13.2284 15.4148L12.95 15.8301ZM13.5875 16.0337V16.5337V16.0337ZM14.225 15.8301L14.5148 16.2376L14.5166 16.2363L14.225 15.8301ZM14.64 14.6301L14.1589 14.7665L14.1598 14.7694L14.64 14.6301ZM13.415 10.3101L13.8961 10.1737L13.894 10.1668L13.415 10.3101ZM13.455 10.1901L13.7522 10.5922L13.7586 10.5875L13.7649 10.5825L13.455 10.1901ZM17.2987 7.7911C17.5682 7.59031 17.7682 7.31019 17.8705 6.99003L16.9179 6.68565C16.8792 6.80696 16.8034 6.91309 16.7013 6.98917L17.2987 7.7911ZM17.8705 6.99003C17.9728 6.66986 17.9723 6.32571 17.8691 6.00582L16.9174 6.31276C16.9565 6.43395 16.9567 6.56435 16.9179 6.68565L17.8705 6.99003ZM17.8691 6.00582C17.766 5.68594 17.5653 5.40636 17.2952 5.20629L16.7 6.00983C16.8023 6.08563 16.8783 6.19156 16.9174 6.31276L17.8691 6.00582ZM17.2952 5.20629C17.0251 5.00622 16.6992 4.89569 16.3631 4.8902L16.3468 5.89007C16.4741 5.89215 16.5976 5.93402 16.7 6.00983L17.2952 5.20629ZM16.3739 4.89049L11.8739 4.72049L11.8361 5.71978L16.3361 5.88978L16.3739 4.89049ZM11.8894 4.72132C11.9635 4.72643 12.0345 4.75286 12.0939 4.79741L11.4939 5.59741C11.5888 5.66857 11.7022 5.71078 11.8205 5.71895L11.8894 4.72132ZM12.0939 4.79741C12.1533 4.84196 12.1986 4.90273 12.2242 4.97241L11.2858 5.31786C11.3267 5.42916 11.399 5.52624 11.4939 5.59741L12.0939 4.79741ZM12.2239 4.97153L10.6689 0.771532L9.73109 1.11874L11.2861 5.31874L12.2239 4.97153ZM10.6696 0.773434C10.5563 0.463502 10.3504 0.195878 10.08 0.00679588L9.507 0.826369C9.60947 0.898008 9.68745 0.999406 9.73039 1.11683L10.6696 0.773434ZM10.08 0.00679588C9.80951 -0.182286 9.48748 -0.283691 9.15748 -0.283691V0.716309C9.28251 0.716309 9.40452 0.754729 9.507 0.826369L10.08 0.00679588ZM9.15748 -0.283691C8.82748 -0.283691 8.50545 -0.182286 8.23499 0.00679588L8.80797 0.826369C8.91044 0.75473 9.03245 0.716309 9.15748 0.716309V-0.283691ZM8.23499 0.00679588C7.96453 0.195878 7.75871 0.463502 7.64539 0.773434L8.58458 1.11683C8.62751 0.999406 8.70549 0.898008 8.80797 0.826369L8.23499 0.00679588ZM7.64571 0.772566L6.09571 4.98757L7.03426 5.3327L8.58426 1.1177L7.64571 0.772566ZM6.09576 4.98741C6.12141 4.91773 6.16666 4.85696 6.22606 4.81241L6.82606 5.61241C6.92094 5.54124 6.99323 5.44416 7.0342 5.33286L6.09576 4.98741ZM6.22606 4.81241C6.28546 4.76786 6.35647 4.74144 6.43055 4.73632L6.49942 5.73395C6.61774 5.72578 6.73118 5.68357 6.82606 5.61241L6.22606 4.81241ZM6.44611 4.73549L1.94611 4.90549L1.98386 5.90478L6.48386 5.73478L6.44611 4.73549ZM1.95682 4.9052C1.62075 4.91069 1.29483 5.02122 1.02475 5.22129L1.62 6.02483C1.72233 5.94902 1.84582 5.90715 1.97315 5.90507L1.95682 4.9052ZM1.02475 5.22129C0.754675 5.42136 0.553984 5.70094 0.450821 6.02082L1.40255 6.32776C1.44164 6.20656 1.51768 6.10063 1.62 6.02483L1.02475 5.22129ZM0.450821 6.02082C0.347658 6.34071 0.347195 6.68486 0.449497 7.00502L1.40205 6.70065C1.36329 6.57935 1.36347 6.44896 1.40255 6.32776L0.450821 6.02082ZM0.449497 7.00502C0.5518 7.32519 0.751738 7.60531 1.02128 7.8061L1.61869 7.00417C1.51656 6.92809 1.44081 6.82196 1.40205 6.70065L0.449497 7.00502ZM1.01097 7.79822L4.54097 10.5732L5.15899 9.78705L1.62899 7.01205L1.01097 7.79822ZM4.54077 10.5731C4.48162 10.5265 4.43742 10.4637 4.41362 10.3923L5.3623 10.076C5.32429 9.96197 5.25367 9.86156 5.15919 9.78721L4.54077 10.5731ZM4.41362 10.3923C4.38982 10.3209 4.38747 10.244 4.40686 10.1713L5.3731 10.4289C5.40408 10.3128 5.40032 10.1901 5.3623 10.076L4.41362 10.3923ZM4.40878 10.1643L3.19378 14.4693L4.15618 14.7409L5.37118 10.4359L4.40878 10.1643ZM3.19441 14.4671C3.10309 14.7851 3.11193 15.1235 3.21975 15.4362L4.16515 15.1103C4.12431 14.9918 4.12095 14.8636 4.15555 14.7432L3.19441 14.4671ZM3.21975 15.4362C3.32756 15.749 3.5291 16.0209 3.79696 16.2151L4.38385 15.4054C4.28236 15.3319 4.206 15.2288 4.16515 15.1103L3.21975 15.4362ZM3.79696 16.2151C4.06482 16.4093 4.38598 16.5162 4.71677 16.5213L4.73235 15.5215C4.60702 15.5195 4.48534 15.479 4.38385 15.4054L3.79696 16.2151ZM4.71677 16.5213C5.04755 16.5265 5.37189 16.4296 5.64567 16.2439L5.08429 15.4164C4.98056 15.4867 4.85768 15.5234 4.73235 15.5215L4.71677 16.5213ZM5.64336 16.2455L9.37336 13.7455L8.81661 12.9148L5.0866 15.4148L5.64336 16.2455ZM9.37907 13.7416C9.31393 13.7866 9.23664 13.8107 9.15748 13.8107V12.8107C9.03366 12.8107 8.91278 12.8483 8.81089 12.9187L9.37907 13.7416ZM9.15748 13.8107C9.07832 13.8107 9.00103 13.7866 8.93589 13.7416L9.50407 12.9187C9.40218 12.8483 9.2813 12.8107 9.15748 12.8107V13.8107ZM8.9416 13.7455L12.6716 16.2455L13.2284 15.4148L9.49836 12.9148L8.9416 13.7455ZM12.6602 16.2376C12.931 16.4302 13.2551 16.5337 13.5875 16.5337V15.5337C13.4629 15.5337 13.3413 15.4949 13.2398 15.4227L12.6602 16.2376ZM13.5875 16.5337C13.9198 16.5337 14.2439 16.4302 14.5148 16.2376L13.9352 15.4227C13.8336 15.4949 13.7121 15.5337 13.5875 15.5337V16.5337ZM14.5166 16.2363C14.7852 16.0434 14.9875 15.7721 15.0956 15.4595L14.1506 15.1326C14.11 15.2499 14.0342 15.3516 13.9334 15.424L14.5166 16.2363ZM15.0956 15.4595C15.2037 15.1469 15.2123 14.8085 15.1202 14.4909L14.1598 14.7694C14.1943 14.8885 14.1911 15.0154 14.1506 15.1326L15.0956 15.4595ZM15.121 14.4937L13.896 10.1737L12.9339 10.4465L14.1589 14.7665L15.121 14.4937ZM13.894 10.1668C13.917 10.2437 13.9157 10.3258 13.8903 10.4019L12.9417 10.0857C12.902 10.2048 12.9 10.3332 12.936 10.4535L13.894 10.1668ZM13.8903 10.4019C13.865 10.4781 13.8167 10.5445 13.7522 10.5922L13.1578 9.78804C13.0568 9.86266 12.9814 9.9666 12.9417 10.0857L13.8903 10.4019ZM13.7649 10.5825L17.3099 7.78251L16.6901 6.99776L13.1451 9.79776L13.7649 10.5825Z" fill="4f4f4f" mask="url(#path-1-inside-1_1_850)"/>
</svg>
