<svg width="65" height="72" viewBox="0 0 65 72" fill="none" xmlns="http://www.w3.org/2000/svg">
<path d="M57.6 7.2H50.4V0H43.2V7.2H21.6V0H14.4V7.2H7.2C3.2292 7.2 0 10.4292 0 14.4V64.8C0 68.7708 3.2292 72 7.2 72H57.6C61.5708 72 64.8 68.7708 64.8 64.8V14.4C64.8 10.4292 61.5708 7.2 57.6 7.2ZM41.0832 61.2L32.2668 56.5632L23.4504 61.2L25.1352 51.3792L18 44.4312L27.8568 42.9984L32.2668 34.0704L36.6768 42.9984L46.5336 44.4312L39.402 51.3828L41.0832 61.2ZM57.6 25.2H7.2V18H57.6V25.2Z" fill="#000"/>
</svg>
