<svg width="18" height="20" viewBox="0 0 18 20" fill="none" xmlns="http://www.w3.org/2000/svg">
<path d="M16.5 5.3125H13.3125V4.9375C13.3125 2.55625 11.3813 0.625 9 0.625C6.61875 0.625 4.6875 2.55625 4.6875 4.9375V5.3125H1.5C1.08516 5.3125 0.75 5.64766 0.75 6.0625V18.625C0.75 19.0398 1.08516 19.375 1.5 19.375H16.5C16.9148 19.375 17.25 19.0398 17.25 18.625V6.0625C17.25 5.64766 16.9148 5.3125 16.5 5.3125ZM11.625 5.3125H6.375V4.9375C6.375 3.48672 7.54922 2.3125 9 2.3125C10.4508 2.3125 11.625 3.48672 11.625 4.9375V5.3125Z" fill="#828282"/>
</svg>
